<!DOCTYPE svg PUBLIC "-//W3C//DTD SVG 1.1//EN" "http://www.w3.org/Graphics/SVG/1.1/DTD/svg11.dtd">
<!-- Uploaded to: SVG Repo, www.svgrepo.com, Transformed by: SVG Repo Mixer Tools -->
<svg height="800px" width="800px" version="1.1" id="Layer_1" xmlns="http://www.w3.org/2000/svg" xmlns:xlink="http://www.w3.org/1999/xlink" viewBox="0 0 512 512" xml:space="preserve" fill="#ffffff">
<g id="SVGRepo_bgCarrier" stroke-width="0"/>
<g id="SVGRepo_tracerCarrier" stroke-linecap="round" stroke-linejoin="round"/>
<g id="SVGRepo_iconCarrier"> <path style="fill:#ffffff;" d="M393.528,433.714l-37.378-89.706c23.516-15.308,39.109-41.811,39.109-71.903 c0-47.275-38.464-85.735-85.744-85.735h-92.426c-12.43,0-22.505,10.076-22.505,22.505v120.967l-1.297-3.113 c-0.034-0.082-0.068-0.164-0.102-0.246l-52.61-126.264c-3.494-8.387-11.688-13.85-20.774-13.85s-17.28,5.462-20.774,13.85 L46.407,326.505c-0.028,0.065-0.055,0.132-0.082,0.198L1.737,433.714c-4.781,11.473,0.645,24.649,12.118,29.43 c11.476,4.784,24.65-0.646,29.43-12.118l38.821-93.169h75.389l38.813,93.151c3.388,8.14,11.414,13.867,20.782,13.867 c12.43,0,22.505-10.076,22.505-22.505v-84.513h69.92c1.209,0,2.408-0.042,3.605-0.091l38.859,93.261 c3.602,8.643,11.97,13.854,20.784,13.854c2.884,0,5.818-0.558,8.647-1.736C392.882,458.364,398.308,445.188,393.528,433.714z M100.861,312.846l18.941-45.457l18.939,45.457H100.861z M309.515,312.846h-69.92V231.38h69.92 c22.459,0,40.733,18.269,40.733,40.724C350.247,294.57,331.975,312.846,309.515,312.846z"/> <path style="fill:#ed840c;" d="M489.495,105.491h-35.868V69.623c0-12.43-10.076-22.505-22.505-22.505s-22.505,10.076-22.505,22.505 v35.868h-35.868c-12.43,0-22.505,10.076-22.505,22.505s10.076,22.506,22.505,22.506h35.868v35.868 c0,12.43,10.076,22.505,22.505,22.505s22.505-10.076,22.505-22.505v-35.868h35.868c12.43,0,22.505-10.076,22.505-22.506 S501.924,105.491,489.495,105.491z"/> </g>
</svg>